<?xml version="1.0" encoding="iso-8859-1"?>
<!-- Uploaded to: SVG Repo, www.svgrepo.com, Generator: SVG Repo Mixer Tools -->
<svg version="1.1" id="Layer_1" xmlns="http://www.w3.org/2000/svg" xmlns:xlink="http://www.w3.org/1999/xlink" 
	 viewBox="0 0 322.414 322.414" xml:space="preserve">
<g>
	<g>
		<path style="fill:#7D868C;" d="M302.168,97.675L161.206,7.5L20.246,97.675v197.07c0,11.093,9.076,20.169,20.169,20.169h241.582
			c11.094,0,20.17-9.076,20.17-20.169L302.168,97.675L302.168,97.675z"/>
		<path style="fill:#005CB9;" d="M301.085,109.891L161.206,20.408L21.33,109.891c-0.699-2.039-1.083-4.22-1.083-6.488v-5.728
			L161.206,7.5l140.961,90.175v5.728C302.168,105.671,301.783,107.852,301.085,109.891z"/>
		<g>
			<rect x="69.78" y="62.936" style="fill:#FFFFFF;" width="182.854" height="219.029"/>
		</g>
		<path style="fill:#C3C6C8;" d="M161.206,239.646L20.246,149.47v145.275c0,11.093,9.076,20.169,20.169,20.169h241.583
			c11.094,0,20.17-9.076,20.17-20.169V149.47L161.206,239.646z"/>
		<path style="fill:#E8E8E8;" d="M161.206,198.842L20.246,289.018v5.728c0,11.093,9.076,20.169,20.169,20.169h241.583
			c11.094,0,20.17-9.076,20.17-20.169v-5.728L161.206,198.842z"/>
	</g>
	<path style="fill:#071C2C;" d="M211.579,161.706H110.835c-4.142,0-7.5,3.358-7.5,7.5s3.358,7.5,7.5,7.5h100.745
		c4.143,0,7.5-3.358,7.5-7.5S215.723,161.706,211.579,161.706z M101.208,108.937h119.999c4.143,0,7.5-3.358,7.5-7.5
		s-3.357-7.5-7.5-7.5H101.208c-4.142,0-7.5,3.358-7.5,7.5S97.066,108.937,101.208,108.937z M101.208,141.208h119.999
		c4.143,0,7.5-3.358,7.5-7.5s-3.357-7.5-7.5-7.5H101.208c-4.142,0-7.5,3.358-7.5,7.5S97.066,141.208,101.208,141.208z
		 M306.21,91.357l-46.168-29.534c-0.538-3.613-3.645-6.387-7.408-6.387h-2.575l-84.81-54.254c-2.464-1.576-5.619-1.576-8.083,0
		l-84.81,54.254H69.78c-3.763,0-6.87,2.774-7.409,6.387L16.205,91.357c-2.155,1.378-3.458,3.76-3.458,6.318v197.07
		c0,15.257,12.413,27.669,27.669,27.669h241.582c15.257,0,27.67-12.413,27.67-27.669V97.675
		C309.668,95.117,308.364,92.735,306.21,91.357z M161.206,16.403l61.016,39.033H100.191L161.206,16.403z M77.28,70.436h167.854
		v106.601l-16.457,10.523c0.016-0.2,0.03-0.4,0.03-0.604c0-4.142-3.357-7.5-7.5-7.5H101.208c-4.142,0-7.5,3.358-7.5,7.5
		c0,0.204,0.015,0.404,0.03,0.604L77.28,177.036V70.436z M217.891,194.455l-4.614,2.95c-0.546-0.127-1.113-0.201-1.698-0.201
		h-39.014l-4.298-2.75h49.624V194.455z M154.146,194.455l-4.298,2.75h-39.014c-0.585,0-1.152,0.074-1.698,0.201l-4.614-2.95h49.624
		V194.455z M27.746,101.78l34.534-22.092v87.757l-34.534-22.081C27.746,145.364,27.746,101.78,27.746,101.78z M65.459,187.282
		c0.182,0.128,0.37,0.248,0.563,0.359l49.4,31.587l-87.675,56.088V163.168L65.459,187.282z M294.668,294.745
		c0,6.986-5.684,12.669-12.67,12.669H40.416c-6.986,0-12.669-5.684-12.669-12.669v-1.623l133.46-85.377l133.461,85.378V294.745z
		 M294.668,275.316l-87.676-56.088l49.396-31.584c0.195-0.113,0.385-0.233,0.567-0.363l37.712-24.113v112.148H294.668z
		 M294.668,145.364l-34.534,22.081V79.688l34.534,22.092V145.364z M101.208,158.957h119.999c4.143,0,7.5-3.358,7.5-7.5
		s-3.357-7.5-7.5-7.5H101.208c-4.142,0-7.5,3.358-7.5,7.5S97.066,158.957,101.208,158.957z"/>
</g>
</svg>