<?xml version="1.0" encoding="UTF-8"?>
<!-- Generated by IcoMoon.io -->
<!DOCTYPE svg PUBLIC "-//W3C//DTD SVG 1.1//EN" "http://www.w3.org/Graphics/SVG/1.1/DTD/svg11.dtd">
<svg version="1.1" xmlns="http://www.w3.org/2000/svg" xmlns:xlink="http://www.w3.org/1999/xlink" width="512" height="512" viewBox="0 0 512 512">
<g>
</g>
	<path d="M98.96 31.549h314.071c37.12 0 67.43 30.32 67.43 67.43v314.071c0 37.079-30.31 67.399-67.43 67.399h-314.071c-37.090 0-67.42-30.32-67.42-67.399v-314.071c0-37.11 30.331-67.43 67.42-67.43v0zM429.23 181.545c-41.267-94.085-150.999-137.441-245.095-96.164-94.576 40.766-137.431 150.498-96.656 244.572 8.335 19.856 19.855 37.099 33.433 51.722-3.133 18.821-21.422 38.697-53.822 59.085 33.966 2.079 62.198-8.878 84.654-32.44 51.221 36.065 119.163 44.985 180.818 18.32 94.597-40.766 137.431-150.528 96.666-245.095v0zM115.692 286.055c1.556 8.899 5.222 15.678 10.978 19.856 5.744 4.7 14.090 6.8 25.067 6.8 6.277 0 12.544-1.045 17.787-3.164 5.222-2.058 8.878-5.724 12.012-9.902 2.601-4.199 3.655-8.377 3.655-13.077 0-5.243-1.065-8.858-3.164-12.042-2.069-3.615-5.222-6.216-9.39-7.803-4.178-1.567-10.967-3.656-20.91-6.277-6.779-2.079-10.977-3.123-12.534-3.656-2.601-1.034-4.167-2.631-5.755-4.167-1.054-1.065-1.566-3.133-1.566-4.7 0-3.154 1.566-5.232 4.167-7.854 2.631-2.078 7.332-3.133 14.121-3.133 5.222 0 9.943 1.577 12.544 3.645 3.154 2.59 5.222 5.755 5.755 10.455l13.568-2.099c-0.502-5.765-2.069-9.943-4.679-13.066-2.099-3.143-5.765-5.755-10.988-7.844-5.212-1.546-10.967-2.601-17.234-2.601-4.72 0-8.376 0.532-12.534 1.566-3.655 1.034-6.82 2.611-8.888 4.178-3.154 2.089-5.243 4.69-6.809 7.823-2.099 3.164-2.591 6.82-2.591 10.476 0 4.198 1.034 7.844 3.113 11.49 2.099 3.134 5.243 5.755 8.888 7.834 4.178 2.11 11.5 4.178 21.954 6.82 7.854 2.079 12.554 3.635 14.643 4.68 2.621 2.099 4.167 4.178 4.167 7.824 0 3.144-1.546 6.298-5.212 9.421-3.154 2.622-7.854 3.635-14.131 3.635-6.779 0-11.469-1.536-15.135-4.158-3.655-3.144-5.765-7.301-6.82-13.077l-14.080 2.12zM202.435 311.152h14.111v-43.377c0-7.854 0.532-13.609 2.089-17.756 1.577-4.178 4.178-6.83 7.322-9.421 3.655-2.069 7.322-3.143 11.5-3.143 5.222 0 8.878 1.556 10.988 4.72 2.59 3.655 3.645 8.356 3.645 14.622v54.364h14.1v-48.61c0-8.857 2.099-15.166 5.765-18.832 4.188-4.188 8.878-6.267 15.145-6.267 3.134 0 5.735 1.065 8.356 2.621 2.089 1.566 4.188 3.645 4.721 5.765 1.024 2.601 1.557 6.789 1.557 12.544v52.777h14.101v-57.457c0-9.974-2.099-16.752-6.779-21.494-4.188-4.669-10.978-6.758-18.832-6.758-10.967 0-19.333 4.69-26.142 14.633-1.546-4.7-4.168-8.356-8.335-10.967-4.188-2.611-8.888-3.655-15.155-3.655-5.744 0-10.455 1.054-15.145 3.655-4.178 2.611-7.854 5.755-10.455 9.912v-11.5h-12.554v83.62zM331.51 286.055c1.567 8.899 5.243 15.678 10.445 19.856 5.765 4.7 14.142 6.8 25.108 6.8 6.789 0 12.554-1.045 17.756-3.164 5.223-2.058 9.421-5.724 12.022-9.902 2.622-4.199 4.178-8.377 4.178-13.077 0-5.243-1.034-8.858-3.656-12.042-2.089-3.615-5.223-6.216-9.401-7.803-3.656-1.567-10.967-3.656-20.9-6.277-6.81-2.079-10.967-3.123-12.544-3.656-2.622-1.034-4.178-2.631-5.243-4.167-1.567-1.065-2.099-3.133-2.099-4.7 0-3.154 1.587-5.232 4.199-7.854 3.144-2.078 7.834-3.133 14.121-3.133 5.735 0 9.913 1.577 13.046 3.645 2.622 2.59 4.711 5.755 5.233 10.455l14.111-2.099c-1.055-5.765-2.622-9.943-5.233-13.066-2.079-3.143-5.745-5.755-10.988-7.844-4.68-1.546-10.445-2.601-17.234-2.601-4.188 0-8.346 0.532-12.012 1.566-4.188 1.034-6.81 2.611-9.411 4.178-2.622 2.089-5.233 4.69-6.789 7.823-1.557 3.164-2.622 6.82-2.622 10.476 0 4.198 1.065 7.844 3.144 11.49 2.079 3.134 5.202 5.755 9.401 7.834 3.646 2.11 10.978 4.178 21.422 6.82 7.844 2.079 12.544 3.635 14.643 4.68 2.611 2.099 4.168 4.178 4.168 7.824 0 3.144-1.557 6.298-4.711 9.421-3.123 2.622-8.346 3.635-14.613 3.635-6.277 0-11.51-1.536-15.155-4.158-3.656-3.144-5.755-7.301-6.789-13.077l-13.599 2.12z" fill="#FFFFFF"/>
</svg>