<?xml version="1.0" encoding="iso-8859-1"?>
<!-- Uploaded to: SVG Repo, www.svgrepo.com, Generator: SVG Repo Mixer Tools -->
<svg height="800px" width="800px" version="1.1" id="Layer_1" xmlns="http://www.w3.org/2000/svg" xmlns:xlink="http://www.w3.org/1999/xlink" 
	 viewBox="0 0 366.785 366.785" xml:space="preserve">
<g>
	<g>
		<g>
			<path style="fill:#C3C6C8;" d="M326.187,77.649c0-11.238-9.193-20.432-20.431-20.432H61.032
				c-11.236,0-20.432,9.193-20.432,20.432v152.965c0,11.238,9.195,20.432,20.432,20.432h244.724
				c11.237,0,20.431-9.193,20.431-20.432V77.649z"/>
			<path style="fill:#E8E8E8;" d="M183.394,133.465L40.601,224.812v5.803c0,11.238,9.195,20.432,20.432,20.432h244.724
				c11.237,0,20.431-9.193,20.431-20.432v-5.803L183.394,133.465z"/>
			<path style="fill:#E8E8E8;" d="M183.394,174.799l142.793-91.35v-5.801c0-11.238-9.193-20.432-20.431-20.432H61.032
				c-11.236,0-20.432,9.193-20.432,20.432v5.801L183.394,174.799z"/>
			<path style="fill:#005CB9;" d="M325.09,71.076l-141.696,90.645L41.697,71.076c-0.707,2.066-1.097,4.275-1.097,6.572v5.801
				l142.793,91.35l142.793-91.35v-5.801C326.187,75.353,325.797,73.144,325.09,71.076z"/>
		</g>
		<path style="fill:#333E48;" d="M337.536,186.456h-27.12c-11.963,0-21.751,9.787-21.751,21.75v26.848H78.122v-26.848
			c0-11.963-9.788-21.75-21.751-21.75h-27.12c-11.962,0-21.75,9.787-21.75,21.75v79.613c0,11.963,9.788,21.75,21.75,21.75h308.285
			c11.963,0,21.75-9.787,21.75-21.75v-79.613C359.286,196.243,349.499,186.456,337.536,186.456z"/>
	</g>
	<path style="fill:#071C2C;" d="M337.536,178.956h-3.85V77.649c0-15.401-12.53-27.932-27.932-27.932H61.032
		c-15.401,0-27.932,12.53-27.932,27.932v101.307h-3.85c-16.129,0-29.25,13.121-29.25,29.25v79.613
		c0,16.129,13.121,29.25,29.25,29.25h308.285c16.129,0,29.25-13.121,29.25-29.25v-79.613
		C366.786,192.077,353.665,178.956,337.536,178.956z M48.101,77.649c0-7.131,5.801-12.932,12.932-12.932h244.723
		c7.131,0,12.932,5.801,12.932,12.932v1.696l-135.293,86.55L48.101,79.346V77.649z M85.446,205.025l65.642-41.991l28.264,18.081
		c1.232,0.789,2.637,1.183,4.042,1.183s2.81-0.394,4.042-1.183l28.264-18.081l65.642,41.991c-0.113,1.045-0.176,2.105-0.176,3.18
		v19.348H85.622v-19.348C85.622,207.132,85.56,206.071,85.446,205.025z M229.616,154.132l89.07-56.979v81.804h-8.271
		c-9.611,0-18.152,4.66-23.488,11.839L229.616,154.132z M48.101,97.152l89.07,56.979l-57.312,36.663
		c-5.336-7.179-13.877-11.839-23.488-11.839h-8.27V97.152z M351.786,287.818c0,7.857-6.393,14.25-14.25,14.25H29.251
		c-7.857,0-14.25-6.393-14.25-14.25v-79.613c0-7.857,6.393-14.25,14.25-14.25h27.12c7.858,0,14.251,6.393,14.251,14.25v26.848
		c0,4.143,3.357,7.5,7.5,7.5h210.543c4.143,0,7.5-3.357,7.5-7.5v-26.848c0-7.857,6.393-14.25,14.251-14.25h27.12
		c7.857,0,14.25,6.393,14.25,14.25V287.818z"/>
</g>
</svg>