<?xml version="1.0" encoding="iso-8859-1"?>
<!-- Uploaded to: SVG Repo, www.svgrepo.com, Generator: SVG Repo Mixer Tools -->
<svg version="1.1" id="Layer_1" xmlns="http://www.w3.org/2000/svg" xmlns:xlink="http://www.w3.org/1999/xlink" 
	 viewBox="0 0 362.344 362.344" xml:space="preserve">
<g>
	<g>
		<path style="fill:#C3C6C8;" d="M298.628,7.5l-29.364,25.445L239.899,7.5l-29.362,25.445L181.172,7.5l-29.364,25.445L122.444,7.5
			L93.08,32.945L63.716,7.5L34.352,32.945v294.71c0,14.954,12.235,27.189,27.189,27.189h239.263
			c14.954,0,27.188-12.235,27.188-27.189V32.945L298.628,7.5z"/>
		<rect x="60.453" y="95.905" style="fill:#7D868C;" width="118.544" height="125.735"/>
		<rect x="231.996" y="254.154" style="fill:#005CB9;" width="69.896" height="63.803"/>
		<rect x="34.352" y="55.766" style="fill:#005CB9;" width="293.641" height="15.226"/>
	</g>
	<path style="fill:#071C2C;" d="M143.132,281.852h70.082v-15h-70.082V281.852z M143.132,320.665h70.082v-15h-70.082V320.665z
		 M143.132,301.258h70.082v-15h-70.082V301.258z M60.321,262.445h70.081v-15H60.321V262.445z M60.321,320.665h70.081v-15H60.321
		V320.665z M60.321,301.258h70.081v-15H60.321V301.258z M60.321,281.852h70.081v-15H60.321V281.852z M143.132,262.445h70.082v-15
		h-70.082V262.445z M301.702,154.859H200.569v15h101.133V154.859z M224.496,254.154v63.803c0,4.142,3.357,7.5,7.5,7.5h69.896
		c4.143,0,7.5-3.358,7.5-7.5v-63.803c0-4.142-3.357-7.5-7.5-7.5h-69.896C227.853,246.654,224.496,250.012,224.496,254.154z
		 M239.496,261.654h54.896v48.803h-54.896V261.654z M60.453,229.14h118.544c4.142,0,7.5-3.358,7.5-7.5V95.905
		c0-4.142-3.357-7.5-7.5-7.5H60.453c-4.142,0-7.5,3.358-7.5,7.5V221.64C52.953,225.782,56.311,229.14,60.453,229.14z
		 M67.953,103.405h103.544V214.14H67.953V103.405z M332.904,27.277L303.54,1.832c-2.818-2.442-7.004-2.442-9.822,0l-24.453,21.189
		L244.81,1.832c-2.818-2.443-7.003-2.442-9.823,0l-24.45,21.189L186.083,1.832c-2.818-2.442-7.003-2.442-9.823,0l-24.453,21.189
		L127.356,1.832c-2.819-2.442-7.004-2.442-9.823,0L93.08,23.021L68.627,1.832c-2.819-2.442-7.005-2.442-9.823,0L29.44,27.277
		c-1.644,1.424-2.588,3.493-2.588,5.668v294.71c0,19.127,15.562,34.689,34.689,34.689h239.263c19.127,0,34.688-15.562,34.688-34.689
		V32.945C335.493,30.77,334.548,28.702,332.904,27.277z M320.493,327.656c0,10.856-8.832,19.689-19.688,19.689H61.541
		c-10.856,0-19.689-8.833-19.689-19.689V78.492h278.641L320.493,327.656L320.493,327.656z M320.493,63.492H41.852V36.37
		l21.864-18.946l24.453,21.189c2.819,2.442,7.004,2.442,9.823,0l24.453-21.189l24.452,21.189c2.818,2.442,7.004,2.442,9.823,0
		l24.453-21.189l24.453,21.189c2.818,2.442,7.003,2.442,9.823,0l24.45-21.189l24.454,21.189c2.818,2.442,7.004,2.442,9.822,0
		l24.453-21.189l21.864,18.946v27.122H320.493z M301.702,193.672H200.569v15h101.133V193.672z M301.702,108.535H200.569v15h101.133
		V108.535z M301.702,135.453H200.569v15h101.133V135.453z M301.702,174.266H200.569v15h101.133V174.266z"/>
</g>
</svg>